<svg width="35" height="31" viewBox="0 0 35 31" fill="none" xmlns="http://www.w3.org/2000/svg">
<path d="M1 29.5H4.3M4.3 29.5H14.2M4.3 29.5V14.8546C4.3 13.9391 4.3 13.4811 4.4072 13.0551C4.5022 12.6776 4.65936 12.3203 4.87041 11.9975C5.10857 11.6332 5.43956 11.3311 6.10308 10.7282L14.0257 3.52983C15.2557 2.41223 15.8708 1.85338 16.5635 1.64068C17.1743 1.45311 17.8254 1.45311 18.4362 1.64068C19.1294 1.85355 19.7453 2.41291 20.9772 3.53221L28.8972 10.7282C29.5607 11.3311 29.8919 11.6332 30.13 11.9975C30.3411 12.3203 30.497 12.6776 30.592 13.0551C30.6992 13.4811 30.7 13.9391 30.7 14.8546V29.5M14.2 29.5H20.8M14.2 29.5V22.6466C14.2 20.7541 15.6775 19.22 17.5 19.22C19.3225 19.22 20.8 20.7541 20.8 22.6466V29.5M20.8 29.5H30.7M30.7 29.5H34" stroke="black" stroke-width="2" stroke-linecap="round" stroke-linejoin="round"/>
</svg>
