<svg width="21" height="31" viewBox="0 0 21 31" fill="none" xmlns="http://www.w3.org/2000/svg">
<path d="M5.74992 29.5H15.2498M10.4998 1.5C5.25322 1.5 1 5.67868 1 10.8333C1 12.7226 1.57133 14.4807 2.55349 15.95C4.06381 18.2095 4.81831 19.3385 4.91634 19.5073C5.78836 21.0083 5.6278 20.4788 5.73755 22.2038C5.74988 22.3977 5.74992 22.6912 5.74992 23.2778C5.74992 24.1369 6.45879 24.8333 7.33322 24.8333L13.6664 24.8333C14.5409 24.8333 15.2498 24.1369 15.2498 23.2778C15.2498 22.6912 15.2498 22.3977 15.2621 22.2038C15.3718 20.4788 15.2103 21.0083 16.0824 19.5073C16.1804 19.3385 16.9362 18.2095 18.4465 15.95C19.4287 14.4807 20 12.7226 20 10.8333C20 5.67868 15.7464 1.5 10.4998 1.5Z" stroke="black" stroke-width="2" stroke-linecap="round" stroke-linejoin="round"/>
</svg>
