<svg width="31" height="30" viewBox="0 0 31 30" fill="none" xmlns="http://www.w3.org/2000/svg">
<path d="M10.8333 13.2499V28.9998M10.8333 13.2499H3.98828C3.11709 13.2499 2.68193 13.2499 2.34918 13.4407C2.05648 13.6084 1.81868 13.876 1.66955 14.2052C1.5 14.5796 1.5 15.07 1.5 16.0501V28.9998H10.8333M10.8333 13.2499V3.80015C10.8333 2.82007 10.8333 2.32966 11.0029 1.95532C11.152 1.62603 11.3898 1.35851 11.6825 1.19074C12.0153 1 12.4504 1 13.3216 1H17.6772C18.5484 1 18.9849 1 19.3176 1.19074C19.6103 1.35851 19.8474 1.62603 19.9965 1.95532C20.1661 2.32966 20.1667 2.82007 20.1667 3.80015V7.99996M10.8333 28.9998H20.1667M20.1667 28.9998L29.5 29V10.8001C29.5 9.82003 29.4994 9.32962 29.3299 8.95527C29.1807 8.62599 28.9446 8.35847 28.6519 8.19069C28.3191 7.99996 27.8823 7.99996 27.0111 7.99996H20.1667M20.1667 28.9998V7.99996" stroke="black" stroke-width="2" stroke-linecap="round" stroke-linejoin="round"/>
</svg>
