<svg width="52" height="40" viewBox="0 0 52 40" fill="none" xmlns="http://www.w3.org/2000/svg">
<mask id="path-1-inside-1_429_375" fill="white">
<path d="M17.167 35.6075L48.8569 0.622379C49.2073 0.235467 49.6202 0.0287594 50.0954 0.00225859C50.5707 -0.0242423 51.0063 0.182465 51.4023 0.622379C51.7984 1.06229 51.9976 1.53533 52 2.0415C52.0024 2.54767 51.8044 3.01938 51.4059 3.45664L19.2048 39.034C18.6215 39.678 17.9423 40 17.167 40C16.3918 40 15.7125 39.678 15.1292 39.034L0.548009 22.9348C0.197579 22.5479 0.0151636 22.0881 0.000762418 21.5554C-0.0136388 21.0227 0.175977 20.5378 0.569611 20.1005C0.963244 19.6632 1.39168 19.4446 1.85492 19.4446C2.31816 19.4446 2.74659 19.6632 3.14023 20.1005L17.167 35.6075Z"/>
</mask>
<path d="M17.167 35.6075L48.8569 0.622379C49.2073 0.235467 49.6202 0.0287594 50.0954 0.00225859C50.5707 -0.0242423 51.0063 0.182465 51.4023 0.622379C51.7984 1.06229 51.9976 1.53533 52 2.0415C52.0024 2.54767 51.8044 3.01938 51.4059 3.45664L19.2048 39.034C18.6215 39.678 17.9423 40 17.167 40C16.3918 40 15.7125 39.678 15.1292 39.034L0.548009 22.9348C0.197579 22.5479 0.0151636 22.0881 0.000762418 21.5554C-0.0136388 21.0227 0.175977 20.5378 0.569611 20.1005C0.963244 19.6632 1.39168 19.4446 1.85492 19.4446C2.31816 19.4446 2.74659 19.6632 3.14023 20.1005L17.167 35.6075Z" fill="black"/>
<path d="M17.167 35.6075L13.4589 38.9616L17.1644 43.0581L20.8728 38.9642L17.167 35.6075ZM48.8569 0.622379L52.5627 3.97908L52.5628 3.97887L48.8569 0.622379ZM51.4059 3.45664L47.7101 0.0890207L47.7045 0.0951946L47.6989 0.101387L51.4059 3.45664ZM19.2048 39.034L22.9107 42.3905L22.9118 42.3893L19.2048 39.034ZM15.1292 39.034L18.8352 35.6776L15.1292 39.034ZM0.548009 22.9348L-3.15793 26.2913L0.548009 22.9348ZM3.14023 20.1005L-0.575848 23.4458L-0.567846 23.4546L3.14023 20.1005ZM20.8728 38.9642L52.5627 3.97908L45.1512 -2.73432L13.4613 32.2508L20.8728 38.9642ZM52.5628 3.97887C52.3761 4.18501 52.083 4.44021 51.6679 4.64805C51.2444 4.86012 50.7967 4.97092 50.3738 4.9945L49.817 -4.98999C47.8955 -4.88283 46.2906 -3.99238 45.151 -2.73412L52.5628 3.97887ZM50.3738 4.9945C49.7658 5.0284 49.1619 4.90464 48.6352 4.65469C48.1375 4.41855 47.8323 4.1299 47.6863 3.96772L55.1183 -2.72296C53.9798 -3.98762 52.167 -5.12103 49.817 -4.98999L50.3738 4.9945ZM47.6863 3.96772C47.5669 3.83504 47.3883 3.59815 47.2407 3.24775C47.0884 2.88608 47.002 2.48011 47 2.06521L56.9999 2.01779C56.9907 0.0804072 56.188 -1.53483 55.1183 -2.72296L47.6863 3.96772ZM47 2.06521C46.998 1.63834 47.0846 1.21705 47.243 0.839586C47.3964 0.47418 47.584 0.227371 47.7101 0.0890207L55.1017 6.82427C56.1929 5.62675 57.0093 3.98652 56.9999 2.01779L47 2.06521ZM47.6989 0.101387L15.4977 35.6788L22.9118 42.3893L55.113 6.8119L47.6989 0.101387ZM15.4989 35.6776C15.5796 35.5884 15.7783 35.4006 16.1162 35.2404C16.4672 35.074 16.8378 35 17.167 35V45C19.533 45 21.5067 43.9408 22.9107 42.3905L15.4989 35.6776ZM17.167 35C17.4963 35 17.8668 35.074 18.2178 35.2404C18.5557 35.4006 18.7545 35.5884 18.8352 35.6776L11.4233 42.3905C12.8274 43.9408 14.801 45 17.167 45V35ZM18.8352 35.6776L4.25394 19.5783L-3.15793 26.2913L11.4233 42.3905L18.8352 35.6776ZM4.25394 19.5783C4.45818 19.8038 4.65437 20.099 4.79597 20.4559C4.93698 20.8113 4.99153 21.1463 4.99894 21.4203L-4.99741 21.6905C-4.95147 23.3897 -4.328 24.9994 -3.15793 26.2913L4.25394 19.5783ZM4.99894 21.4203C5.00937 21.8062 4.94325 22.2181 4.78889 22.6129C4.63792 22.999 4.43976 23.2746 4.28568 23.4458L-3.14646 16.7552C-4.30062 18.0373 -5.0502 19.738 -4.99741 21.6905L4.99894 21.4203ZM4.28568 23.4458C4.16171 23.5835 3.89607 23.8391 3.45887 24.0622C2.9972 24.2978 2.44411 24.4446 1.85492 24.4446V14.4446C-0.388659 14.4446 -2.07828 15.5687 -3.14646 16.7552L4.28568 23.4458ZM1.85492 24.4446C1.26573 24.4446 0.712638 24.2978 0.25097 24.0622C-0.186229 23.8391 -0.451875 23.5835 -0.575838 23.4458L6.85629 16.7552C5.78812 15.5687 4.0985 14.4446 1.85492 14.4446V24.4446ZM-0.567846 23.4546L13.4589 38.9616L20.8751 32.2534L6.8483 16.7464L-0.567846 23.4546Z" fill="black" mask="url(#path-1-inside-1_429_375)"/>
</svg>
